<svg xmlns="http://www.w3.org/2000/svg" xmlns:xlink="http://www.w3.org/1999/xlink" width="300" zoomAndPan="magnify" viewBox="0 0 224.87999 30.000001" height="40" preserveAspectRatio="xMidYMid meet" version="1.2"><defs/><g id="4bc0a8af1a"><g style="fill:#ffffff;fill-opacity:1;"><g transform="translate(6.893168, 19.242128)"><path style="stroke:none" d="M 10.640625 0.3125 C 8.816406 0.3125 7.171875 -0.0820312 5.703125 -0.875 C 4.242188 -1.664062 3.09375 -2.757812 2.25 -4.15625 C 1.40625 -5.550781 0.984375 -7.132812 0.984375 -8.90625 C 0.984375 -10.664062 1.40625 -12.242188 2.25 -13.640625 C 3.09375 -15.046875 4.242188 -16.140625 5.703125 -16.921875 C 7.171875 -17.710938 8.820312 -18.109375 10.65625 -18.109375 C 12.195312 -18.109375 13.59375 -17.835938 14.84375 -17.296875 C 16.09375 -16.753906 17.140625 -15.972656 17.984375 -14.953125 L 15.34375 -12.515625 C 14.132812 -13.898438 12.640625 -14.59375 10.859375 -14.59375 C 9.753906 -14.59375 8.769531 -14.351562 7.90625 -13.875 C 7.039062 -13.394531 6.363281 -12.722656 5.875 -11.859375 C 5.394531 -10.992188 5.15625 -10.007812 5.15625 -8.90625 C 5.15625 -7.800781 5.394531 -6.816406 5.875 -5.953125 C 6.363281 -5.085938 7.039062 -4.410156 7.90625 -3.921875 C 8.769531 -3.441406 9.753906 -3.203125 10.859375 -3.203125 C 12.640625 -3.203125 14.132812 -3.90625 15.34375 -5.3125 L 17.984375 -2.875 C 17.140625 -1.84375 16.085938 -1.050781 14.828125 -0.5 C 13.578125 0.0390625 12.179688 0.3125 10.640625 0.3125 Z M 10.640625 0.3125 "/></g></g><g style="fill:#ffffff;fill-opacity:1;"><g transform="translate(31.914718, 19.242128)"><path style="stroke:none" d="M 10.734375 0.3125 C 8.890625 0.3125 7.222656 -0.0820312 5.734375 -0.875 C 4.253906 -1.675781 3.09375 -2.773438 2.25 -4.171875 C 1.40625 -5.578125 0.984375 -7.15625 0.984375 -8.90625 C 0.984375 -10.644531 1.40625 -12.210938 2.25 -13.609375 C 3.09375 -15.015625 4.253906 -16.113281 5.734375 -16.90625 C 7.222656 -17.707031 8.890625 -18.109375 10.734375 -18.109375 C 12.578125 -18.109375 14.238281 -17.707031 15.71875 -16.90625 C 17.195312 -16.113281 18.359375 -15.015625 19.203125 -13.609375 C 20.054688 -12.210938 20.484375 -10.644531 20.484375 -8.90625 C 20.484375 -7.15625 20.054688 -5.578125 19.203125 -4.171875 C 18.359375 -2.773438 17.195312 -1.675781 15.71875 -0.875 C 14.238281 -0.0820312 12.578125 0.3125 10.734375 0.3125 Z M 10.734375 -3.203125 C 11.785156 -3.203125 12.734375 -3.441406 13.578125 -3.921875 C 14.429688 -4.410156 15.097656 -5.085938 15.578125 -5.953125 C 16.066406 -6.816406 16.3125 -7.800781 16.3125 -8.90625 C 16.3125 -10.007812 16.066406 -10.992188 15.578125 -11.859375 C 15.097656 -12.722656 14.429688 -13.394531 13.578125 -13.875 C 12.734375 -14.351562 11.785156 -14.59375 10.734375 -14.59375 C 9.679688 -14.59375 8.726562 -14.351562 7.875 -13.875 C 7.03125 -13.394531 6.363281 -12.722656 5.875 -11.859375 C 5.394531 -10.992188 5.15625 -10.007812 5.15625 -8.90625 C 5.15625 -7.800781 5.394531 -6.816406 5.875 -5.953125 C 6.363281 -5.085938 7.03125 -4.410156 7.875 -3.921875 C 8.726562 -3.441406 9.679688 -3.203125 10.734375 -3.203125 Z M 10.734375 -3.203125 "/></g></g><g style="fill:#ffffff;fill-opacity:1;"><g transform="translate(60.140034, 19.242128)"><path style="stroke:none" d="M 18.4375 -17.8125 L 18.4375 0 L 15.0625 0 L 6.1875 -10.8125 L 6.1875 0 L 2.109375 0 L 2.109375 -17.8125 L 5.515625 -17.8125 L 14.375 -7 L 14.375 -17.8125 Z M 18.4375 -17.8125 "/></g></g><g style="fill:#ffffff;fill-opacity:1;"><g transform="translate(87.450019, 19.242128)"><path style="stroke:none" d="M 2.109375 -17.8125 L 10.203125 -17.8125 C 12.128906 -17.8125 13.832031 -17.441406 15.3125 -16.703125 C 16.800781 -15.960938 17.957031 -14.921875 18.78125 -13.578125 C 19.601562 -12.242188 20.015625 -10.6875 20.015625 -8.90625 C 20.015625 -7.125 19.601562 -5.5625 18.78125 -4.21875 C 17.957031 -2.882812 16.800781 -1.847656 15.3125 -1.109375 C 13.832031 -0.367188 12.128906 0 10.203125 0 L 2.109375 0 Z M 10 -3.390625 C 11.78125 -3.390625 13.195312 -3.882812 14.25 -4.875 C 15.3125 -5.863281 15.84375 -7.207031 15.84375 -8.90625 C 15.84375 -10.601562 15.3125 -11.945312 14.25 -12.9375 C 13.195312 -13.925781 11.78125 -14.421875 10 -14.421875 L 6.234375 -14.421875 L 6.234375 -3.390625 Z M 10 -3.390625 "/></g></g><g style="fill:#ffffff;fill-opacity:1;"><g transform="translate(115.217664, 19.242128)"><path style="stroke:none" d="M 10.734375 0.3125 C 8.890625 0.3125 7.222656 -0.0820312 5.734375 -0.875 C 4.253906 -1.675781 3.09375 -2.773438 2.25 -4.171875 C 1.40625 -5.578125 0.984375 -7.15625 0.984375 -8.90625 C 0.984375 -10.644531 1.40625 -12.210938 2.25 -13.609375 C 3.09375 -15.015625 4.253906 -16.113281 5.734375 -16.90625 C 7.222656 -17.707031 8.890625 -18.109375 10.734375 -18.109375 C 12.578125 -18.109375 14.238281 -17.707031 15.71875 -16.90625 C 17.195312 -16.113281 18.359375 -15.015625 19.203125 -13.609375 C 20.054688 -12.210938 20.484375 -10.644531 20.484375 -8.90625 C 20.484375 -7.15625 20.054688 -5.578125 19.203125 -4.171875 C 18.359375 -2.773438 17.195312 -1.675781 15.71875 -0.875 C 14.238281 -0.0820312 12.578125 0.3125 10.734375 0.3125 Z M 10.734375 -3.203125 C 11.785156 -3.203125 12.734375 -3.441406 13.578125 -3.921875 C 14.429688 -4.410156 15.097656 -5.085938 15.578125 -5.953125 C 16.066406 -6.816406 16.3125 -7.800781 16.3125 -8.90625 C 16.3125 -10.007812 16.066406 -10.992188 15.578125 -11.859375 C 15.097656 -12.722656 14.429688 -13.394531 13.578125 -13.875 C 12.734375 -14.351562 11.785156 -14.59375 10.734375 -14.59375 C 9.679688 -14.59375 8.726562 -14.351562 7.875 -13.875 C 7.03125 -13.394531 6.363281 -12.722656 5.875 -11.859375 C 5.394531 -10.992188 5.15625 -10.007812 5.15625 -8.90625 C 5.15625 -7.800781 5.394531 -6.816406 5.875 -5.953125 C 6.363281 -5.085938 7.03125 -4.410156 7.875 -3.921875 C 8.726562 -3.441406 9.679688 -3.203125 10.734375 -3.203125 Z M 10.734375 -3.203125 "/></g></g><g style="fill:#ffffff;fill-opacity:1;"><g transform="translate(143.442981, 19.242128)"><path style="stroke:none" d="M 18.3125 0 L 18.296875 -10.6875 L 13.046875 -1.875 L 11.1875 -1.875 L 5.984375 -10.453125 L 5.984375 0 L 2.109375 0 L 2.109375 -17.8125 L 5.515625 -17.8125 L 12.1875 -6.734375 L 18.75 -17.8125 L 22.125 -17.8125 L 22.1875 0 Z M 18.3125 0 "/></g></g><g style="fill:#ffffff;fill-opacity:1;"><g transform="translate(174.490576, 19.242128)"><path style="stroke:none" d="M 13.84375 -3.8125 L 5.578125 -3.8125 L 4 0 L -0.234375 0 L 7.703125 -17.8125 L 11.78125 -17.8125 L 19.734375 0 L 15.421875 0 Z M 12.546875 -6.9375 L 9.71875 -13.765625 L 6.890625 -6.9375 Z M 12.546875 -6.9375 "/></g></g><g style="fill:#ffffff;fill-opacity:1;"><g transform="translate(199.817097, 19.242128)"><path style="stroke:none" d="M 13.328125 0 L 9.03125 -6.1875 L 4.8125 0 L 0.078125 0 L 6.671875 -9.0625 L 0.40625 -17.8125 L 5.09375 -17.8125 L 9.1875 -12.03125 L 13.203125 -17.8125 L 17.65625 -17.8125 L 11.453125 -9.203125 L 18.09375 0 Z M 13.328125 0 "/></g></g><g style="fill:#ad720f;fill-opacity:1;"><g transform="translate(13.917506, 27.295293)"><path style="stroke:none" d="M 4.171875 -1.328125 L 1.359375 -1.328125 L 0.765625 0 L 0 0 L 2.390625 -5.3125 L 3.140625 -5.3125 L 5.5625 0 L 4.765625 0 Z M 3.90625 -1.9375 L 2.765625 -4.53125 L 1.625 -1.9375 Z M 3.90625 -1.9375 "/></g></g><g style="fill:#ad720f;fill-opacity:1;"><g transform="translate(21.494562, 27.295293)"><path style="stroke:none" d="M 0.796875 -5.3125 L 3.03125 -5.3125 C 3.59375 -5.3125 4.085938 -5.195312 4.515625 -4.96875 C 4.953125 -4.75 5.289062 -4.4375 5.53125 -4.03125 C 5.769531 -3.632812 5.890625 -3.175781 5.890625 -2.65625 C 5.890625 -2.132812 5.769531 -1.671875 5.53125 -1.265625 C 5.289062 -0.867188 4.953125 -0.554688 4.515625 -0.328125 C 4.085938 -0.109375 3.59375 0 3.03125 0 L 0.796875 0 Z M 2.984375 -0.65625 C 3.410156 -0.65625 3.785156 -0.738281 4.109375 -0.90625 C 4.441406 -1.070312 4.695312 -1.304688 4.875 -1.609375 C 5.050781 -1.910156 5.140625 -2.257812 5.140625 -2.65625 C 5.140625 -3.050781 5.050781 -3.394531 4.875 -3.6875 C 4.695312 -3.988281 4.441406 -4.222656 4.109375 -4.390625 C 3.785156 -4.554688 3.410156 -4.640625 2.984375 -4.640625 L 1.546875 -4.640625 L 1.546875 -0.65625 Z M 2.984375 -0.65625 "/></g></g><g style="fill:#ad720f;fill-opacity:1;"><g transform="translate(29.783863, 27.295293)"><path style="stroke:none" d="M 5.71875 0 L 5.703125 -3.859375 L 3.796875 -0.640625 L 3.4375 -0.640625 L 1.515625 -3.84375 L 1.515625 0 L 0.796875 0 L 0.796875 -5.3125 L 1.421875 -5.3125 L 3.625 -1.578125 L 5.8125 -5.3125 L 6.4375 -5.3125 L 6.4375 0 Z M 5.71875 0 "/></g></g><g style="fill:#ad720f;fill-opacity:1;"><g transform="translate(39.050612, 27.295293)"><path style="stroke:none" d="M 0.796875 -5.3125 L 1.546875 -5.3125 L 1.546875 0 L 0.796875 0 Z M 0.796875 -5.3125 "/></g></g><g style="fill:#ad720f;fill-opacity:1;"><g transform="translate(43.430146, 27.295293)"><path style="stroke:none" d="M 5.359375 -5.3125 L 5.359375 0 L 4.734375 0 L 1.546875 -3.953125 L 1.546875 0 L 0.796875 0 L 0.796875 -5.3125 L 1.421875 -5.3125 L 4.59375 -1.34375 L 4.59375 -5.3125 Z M 5.359375 -5.3125 "/></g></g><g style="fill:#ad720f;fill-opacity:1;"><g transform="translate(51.613369, 27.295293)"><path style="stroke:none" d="M 0.796875 -5.3125 L 1.546875 -5.3125 L 1.546875 0 L 0.796875 0 Z M 0.796875 -5.3125 "/></g></g><g style="fill:#ad720f;fill-opacity:1;"><g transform="translate(55.992903, 27.295293)"><path style="stroke:none" d="M 2.34375 0.0625 C 1.945312 0.0625 1.5625 0 1.1875 -0.125 C 0.8125 -0.25 0.519531 -0.410156 0.3125 -0.609375 L 0.59375 -1.203125 C 0.789062 -1.015625 1.046875 -0.863281 1.359375 -0.75 C 1.679688 -0.632812 2.007812 -0.578125 2.34375 -0.578125 C 2.78125 -0.578125 3.109375 -0.648438 3.328125 -0.796875 C 3.546875 -0.953125 3.65625 -1.15625 3.65625 -1.40625 C 3.65625 -1.582031 3.59375 -1.726562 3.46875 -1.84375 C 3.351562 -1.957031 3.207031 -2.046875 3.03125 -2.109375 C 2.863281 -2.171875 2.617188 -2.238281 2.296875 -2.3125 C 1.898438 -2.40625 1.578125 -2.5 1.328125 -2.59375 C 1.085938 -2.695312 0.878906 -2.847656 0.703125 -3.046875 C 0.523438 -3.242188 0.4375 -3.507812 0.4375 -3.84375 C 0.4375 -4.132812 0.507812 -4.390625 0.65625 -4.609375 C 0.8125 -4.835938 1.039062 -5.019531 1.34375 -5.15625 C 1.644531 -5.289062 2.019531 -5.359375 2.46875 -5.359375 C 2.78125 -5.359375 3.085938 -5.316406 3.390625 -5.234375 C 3.691406 -5.160156 3.953125 -5.046875 4.171875 -4.890625 L 3.921875 -4.296875 C 3.703125 -4.429688 3.460938 -4.535156 3.203125 -4.609375 C 2.953125 -4.679688 2.707031 -4.71875 2.46875 -4.71875 C 2.039062 -4.71875 1.71875 -4.640625 1.5 -4.484375 C 1.289062 -4.328125 1.1875 -4.125 1.1875 -3.875 C 1.1875 -3.695312 1.242188 -3.550781 1.359375 -3.4375 C 1.484375 -3.320312 1.632812 -3.234375 1.8125 -3.171875 C 1.988281 -3.109375 2.234375 -3.039062 2.546875 -2.96875 C 2.941406 -2.875 3.257812 -2.773438 3.5 -2.671875 C 3.75 -2.578125 3.957031 -2.429688 4.125 -2.234375 C 4.300781 -2.046875 4.390625 -1.785156 4.390625 -1.453125 C 4.390625 -1.171875 4.3125 -0.914062 4.15625 -0.6875 C 4.007812 -0.457031 3.78125 -0.273438 3.46875 -0.140625 C 3.164062 -0.00390625 2.789062 0.0625 2.34375 0.0625 Z M 2.34375 0.0625 "/></g></g><g style="fill:#ad720f;fill-opacity:1;"><g transform="translate(62.653141, 27.295293)"><path style="stroke:none" d="M 1.84375 -4.640625 L 0.03125 -4.640625 L 0.03125 -5.3125 L 4.421875 -5.3125 L 4.421875 -4.640625 L 2.59375 -4.640625 L 2.59375 0 L 1.84375 0 Z M 1.84375 -4.640625 "/></g></g><g style="fill:#ad720f;fill-opacity:1;"><g transform="translate(69.131525, 27.295293)"><path style="stroke:none" d="M 4.34375 0 L 3.203125 -1.625 C 3.054688 -1.613281 2.941406 -1.609375 2.859375 -1.609375 L 1.546875 -1.609375 L 1.546875 0 L 0.796875 0 L 0.796875 -5.3125 L 2.859375 -5.3125 C 3.546875 -5.3125 4.085938 -5.144531 4.484375 -4.8125 C 4.878906 -4.476562 5.078125 -4.023438 5.078125 -3.453125 C 5.078125 -3.046875 4.972656 -2.695312 4.765625 -2.40625 C 4.566406 -2.125 4.28125 -1.914062 3.90625 -1.78125 L 5.171875 0 Z M 2.84375 -2.265625 C 3.320312 -2.265625 3.6875 -2.363281 3.9375 -2.5625 C 4.1875 -2.769531 4.3125 -3.066406 4.3125 -3.453125 C 4.3125 -3.835938 4.1875 -4.128906 3.9375 -4.328125 C 3.6875 -4.535156 3.320312 -4.640625 2.84375 -4.640625 L 1.546875 -4.640625 L 1.546875 -2.265625 Z M 2.84375 -2.265625 "/></g></g><g style="fill:#ad720f;fill-opacity:1;"><g transform="translate(76.670697, 27.295293)"><path style="stroke:none" d="M 4.171875 -1.328125 L 1.359375 -1.328125 L 0.765625 0 L 0 0 L 2.390625 -5.3125 L 3.140625 -5.3125 L 5.5625 0 L 4.765625 0 Z M 3.90625 -1.9375 L 2.765625 -4.53125 L 1.625 -1.9375 Z M 3.90625 -1.9375 "/></g></g><g style="fill:#ad720f;fill-opacity:1;"><g transform="translate(84.171986, 27.295293)"><path style="stroke:none" d="M 3.171875 0.0625 C 2.640625 0.0625 2.160156 -0.0507812 1.734375 -0.28125 C 1.304688 -0.519531 0.96875 -0.84375 0.71875 -1.25 C 0.476562 -1.664062 0.359375 -2.132812 0.359375 -2.65625 C 0.359375 -3.164062 0.476562 -3.625 0.71875 -4.03125 C 0.96875 -4.445312 1.304688 -4.769531 1.734375 -5 C 2.160156 -5.238281 2.640625 -5.359375 3.171875 -5.359375 C 3.585938 -5.359375 3.96875 -5.289062 4.3125 -5.15625 C 4.65625 -5.019531 4.945312 -4.816406 5.1875 -4.546875 L 4.703125 -4.0625 C 4.296875 -4.476562 3.796875 -4.6875 3.203125 -4.6875 C 2.804688 -4.6875 2.445312 -4.597656 2.125 -4.421875 C 1.8125 -4.242188 1.566406 -4 1.390625 -3.6875 C 1.210938 -3.382812 1.125 -3.039062 1.125 -2.65625 C 1.125 -2.269531 1.210938 -1.921875 1.390625 -1.609375 C 1.566406 -1.296875 1.8125 -1.050781 2.125 -0.875 C 2.445312 -0.695312 2.804688 -0.609375 3.203125 -0.609375 C 3.796875 -0.609375 4.296875 -0.820312 4.703125 -1.25 L 5.1875 -0.765625 C 4.945312 -0.492188 4.65625 -0.285156 4.3125 -0.140625 C 3.96875 -0.00390625 3.585938 0.0625 3.171875 0.0625 Z M 2.84375 1.703125 C 2.582031 1.703125 2.359375 1.644531 2.171875 1.53125 L 2.328125 1.15625 C 2.484375 1.238281 2.65625 1.28125 2.84375 1.28125 C 3.132812 1.28125 3.28125 1.179688 3.28125 0.984375 C 3.28125 0.890625 3.242188 0.816406 3.171875 0.765625 C 3.097656 0.710938 2.988281 0.6875 2.84375 0.6875 L 2.640625 0.6875 L 2.828125 -0.046875 L 3.25 -0.046875 L 3.125 0.375 C 3.34375 0.394531 3.507812 0.460938 3.625 0.578125 C 3.738281 0.691406 3.796875 0.835938 3.796875 1.015625 C 3.796875 1.222656 3.707031 1.390625 3.53125 1.515625 C 3.363281 1.640625 3.132812 1.703125 2.84375 1.703125 Z M 2.84375 1.703125 "/></g></g><g style="fill:#ad720f;fill-opacity:1;"><g transform="translate(91.552042, 27.295293)"><path style="stroke:none" d="M 4.171875 -1.328125 L 1.359375 -1.328125 L 0.765625 0 L 0 0 L 2.390625 -5.3125 L 3.140625 -5.3125 L 5.5625 0 L 4.765625 0 Z M 3.90625 -1.9375 L 2.765625 -4.53125 L 1.625 -1.9375 Z M 3.296875 -5.765625 C 3.179688 -5.765625 3.078125 -5.785156 2.984375 -5.828125 C 2.898438 -5.878906 2.789062 -5.957031 2.65625 -6.0625 C 2.582031 -6.132812 2.515625 -6.1875 2.453125 -6.21875 C 2.398438 -6.25 2.347656 -6.265625 2.296875 -6.265625 C 2.179688 -6.265625 2.085938 -6.222656 2.015625 -6.140625 C 1.953125 -6.054688 1.914062 -5.941406 1.90625 -5.796875 L 1.5 -5.796875 C 1.507812 -6.078125 1.582031 -6.300781 1.71875 -6.46875 C 1.851562 -6.632812 2.03125 -6.71875 2.25 -6.71875 C 2.363281 -6.71875 2.46875 -6.691406 2.5625 -6.640625 C 2.65625 -6.585938 2.765625 -6.507812 2.890625 -6.40625 C 2.972656 -6.34375 3.039062 -6.289062 3.09375 -6.25 C 3.144531 -6.21875 3.195312 -6.203125 3.25 -6.203125 C 3.363281 -6.203125 3.453125 -6.242188 3.515625 -6.328125 C 3.585938 -6.410156 3.628906 -6.519531 3.640625 -6.65625 L 4.046875 -6.65625 C 4.035156 -6.382812 3.960938 -6.164062 3.828125 -6 C 3.691406 -5.84375 3.515625 -5.765625 3.296875 -5.765625 Z M 3.296875 -5.765625 "/></g></g><g style="fill:#ad720f;fill-opacity:1;"><g transform="translate(99.053331, 27.295293)"><path style="stroke:none" d="M 3.1875 0.0625 C 2.65625 0.0625 2.171875 -0.0507812 1.734375 -0.28125 C 1.304688 -0.519531 0.96875 -0.847656 0.71875 -1.265625 C 0.476562 -1.679688 0.359375 -2.144531 0.359375 -2.65625 C 0.359375 -3.164062 0.476562 -3.625 0.71875 -4.03125 C 0.96875 -4.445312 1.304688 -4.769531 1.734375 -5 C 2.171875 -5.238281 2.65625 -5.359375 3.1875 -5.359375 C 3.71875 -5.359375 4.195312 -5.238281 4.625 -5 C 5.0625 -4.769531 5.398438 -4.445312 5.640625 -4.03125 C 5.878906 -3.625 6 -3.164062 6 -2.65625 C 6 -2.132812 5.878906 -1.664062 5.640625 -1.25 C 5.398438 -0.84375 5.0625 -0.519531 4.625 -0.28125 C 4.195312 -0.0507812 3.71875 0.0625 3.1875 0.0625 Z M 3.1875 -0.609375 C 3.582031 -0.609375 3.929688 -0.695312 4.234375 -0.875 C 4.546875 -1.050781 4.789062 -1.296875 4.96875 -1.609375 C 5.15625 -1.921875 5.25 -2.269531 5.25 -2.65625 C 5.25 -3.039062 5.15625 -3.382812 4.96875 -3.6875 C 4.789062 -4 4.546875 -4.242188 4.234375 -4.421875 C 3.929688 -4.597656 3.582031 -4.6875 3.1875 -4.6875 C 2.800781 -4.6875 2.445312 -4.597656 2.125 -4.421875 C 1.8125 -4.242188 1.566406 -4 1.390625 -3.6875 C 1.210938 -3.382812 1.125 -3.039062 1.125 -2.65625 C 1.125 -2.269531 1.210938 -1.921875 1.390625 -1.609375 C 1.566406 -1.296875 1.8125 -1.050781 2.125 -0.875 C 2.445312 -0.695312 2.800781 -0.609375 3.1875 -0.609375 Z M 3.1875 -0.609375 "/></g></g><g style="fill:#ad720f;fill-opacity:1;"><g transform="translate(107.448719, 27.295293)"><path style="stroke:none" d=""/></g></g><g style="fill:#ad720f;fill-opacity:1;"><g transform="translate(111.517592, 27.295293)"><path style="stroke:none" d="M 0.796875 -5.3125 L 3.03125 -5.3125 C 3.59375 -5.3125 4.085938 -5.195312 4.515625 -4.96875 C 4.953125 -4.75 5.289062 -4.4375 5.53125 -4.03125 C 5.769531 -3.632812 5.890625 -3.175781 5.890625 -2.65625 C 5.890625 -2.132812 5.769531 -1.671875 5.53125 -1.265625 C 5.289062 -0.867188 4.953125 -0.554688 4.515625 -0.328125 C 4.085938 -0.109375 3.59375 0 3.03125 0 L 0.796875 0 Z M 2.984375 -0.65625 C 3.410156 -0.65625 3.785156 -0.738281 4.109375 -0.90625 C 4.441406 -1.070312 4.695312 -1.304688 4.875 -1.609375 C 5.050781 -1.910156 5.140625 -2.257812 5.140625 -2.65625 C 5.140625 -3.050781 5.050781 -3.394531 4.875 -3.6875 C 4.695312 -3.988281 4.441406 -4.222656 4.109375 -4.390625 C 3.785156 -4.554688 3.410156 -4.640625 2.984375 -4.640625 L 1.546875 -4.640625 L 1.546875 -0.65625 Z M 2.984375 -0.65625 "/></g></g><g style="fill:#ad720f;fill-opacity:1;"><g transform="translate(119.806892, 27.295293)"><path style="stroke:none" d="M 4.640625 -0.65625 L 4.640625 0 L 0.796875 0 L 0.796875 -5.3125 L 4.546875 -5.3125 L 4.546875 -4.640625 L 1.546875 -4.640625 L 1.546875 -3.015625 L 4.21875 -3.015625 L 4.21875 -2.375 L 1.546875 -2.375 L 1.546875 -0.65625 Z M 4.640625 -0.65625 "/></g></g><g style="fill:#ad720f;fill-opacity:1;"><g transform="translate(126.914171, 27.295293)"><path style="stroke:none" d=""/></g></g><g style="fill:#ad720f;fill-opacity:1;"><g transform="translate(130.983044, 27.295293)"><path style="stroke:none" d="M 3.171875 0.0625 C 2.640625 0.0625 2.160156 -0.0507812 1.734375 -0.28125 C 1.304688 -0.519531 0.96875 -0.84375 0.71875 -1.25 C 0.476562 -1.664062 0.359375 -2.132812 0.359375 -2.65625 C 0.359375 -3.164062 0.476562 -3.625 0.71875 -4.03125 C 0.96875 -4.445312 1.304688 -4.769531 1.734375 -5 C 2.160156 -5.238281 2.640625 -5.359375 3.171875 -5.359375 C 3.585938 -5.359375 3.96875 -5.289062 4.3125 -5.15625 C 4.65625 -5.019531 4.945312 -4.816406 5.1875 -4.546875 L 4.703125 -4.0625 C 4.296875 -4.476562 3.796875 -4.6875 3.203125 -4.6875 C 2.804688 -4.6875 2.445312 -4.597656 2.125 -4.421875 C 1.8125 -4.242188 1.566406 -4 1.390625 -3.6875 C 1.210938 -3.382812 1.125 -3.039062 1.125 -2.65625 C 1.125 -2.269531 1.210938 -1.921875 1.390625 -1.609375 C 1.566406 -1.296875 1.8125 -1.050781 2.125 -0.875 C 2.445312 -0.695312 2.804688 -0.609375 3.203125 -0.609375 C 3.796875 -0.609375 4.296875 -0.820312 4.703125 -1.25 L 5.1875 -0.765625 C 4.945312 -0.492188 4.65625 -0.285156 4.3125 -0.140625 C 3.96875 -0.00390625 3.585938 0.0625 3.171875 0.0625 Z M 3.171875 0.0625 "/></g></g><g style="fill:#ad720f;fill-opacity:1;"><g transform="translate(138.378255, 27.295293)"><path style="stroke:none" d="M 3.1875 0.0625 C 2.65625 0.0625 2.171875 -0.0507812 1.734375 -0.28125 C 1.304688 -0.519531 0.96875 -0.847656 0.71875 -1.265625 C 0.476562 -1.679688 0.359375 -2.144531 0.359375 -2.65625 C 0.359375 -3.164062 0.476562 -3.625 0.71875 -4.03125 C 0.96875 -4.445312 1.304688 -4.769531 1.734375 -5 C 2.171875 -5.238281 2.65625 -5.359375 3.1875 -5.359375 C 3.71875 -5.359375 4.195312 -5.238281 4.625 -5 C 5.0625 -4.769531 5.398438 -4.445312 5.640625 -4.03125 C 5.878906 -3.625 6 -3.164062 6 -2.65625 C 6 -2.132812 5.878906 -1.664062 5.640625 -1.25 C 5.398438 -0.84375 5.0625 -0.519531 4.625 -0.28125 C 4.195312 -0.0507812 3.71875 0.0625 3.1875 0.0625 Z M 3.1875 -0.609375 C 3.582031 -0.609375 3.929688 -0.695312 4.234375 -0.875 C 4.546875 -1.050781 4.789062 -1.296875 4.96875 -1.609375 C 5.15625 -1.921875 5.25 -2.269531 5.25 -2.65625 C 5.25 -3.039062 5.15625 -3.382812 4.96875 -3.6875 C 4.789062 -4 4.546875 -4.242188 4.234375 -4.421875 C 3.929688 -4.597656 3.582031 -4.6875 3.1875 -4.6875 C 2.800781 -4.6875 2.445312 -4.597656 2.125 -4.421875 C 1.8125 -4.242188 1.566406 -4 1.390625 -3.6875 C 1.210938 -3.382812 1.125 -3.039062 1.125 -2.65625 C 1.125 -2.269531 1.210938 -1.921875 1.390625 -1.609375 C 1.566406 -1.296875 1.8125 -1.050781 2.125 -0.875 C 2.445312 -0.695312 2.800781 -0.609375 3.1875 -0.609375 Z M 3.1875 -0.609375 "/></g></g><g style="fill:#ad720f;fill-opacity:1;"><g transform="translate(146.773643, 27.295293)"><path style="stroke:none" d="M 5.359375 -5.3125 L 5.359375 0 L 4.734375 0 L 1.546875 -3.953125 L 1.546875 0 L 0.796875 0 L 0.796875 -5.3125 L 1.421875 -5.3125 L 4.59375 -1.34375 L 4.59375 -5.3125 Z M 5.359375 -5.3125 "/></g></g><g style="fill:#ad720f;fill-opacity:1;"><g transform="translate(154.956866, 27.295293)"><path style="stroke:none" d="M 0.796875 -5.3125 L 3.03125 -5.3125 C 3.59375 -5.3125 4.085938 -5.195312 4.515625 -4.96875 C 4.953125 -4.75 5.289062 -4.4375 5.53125 -4.03125 C 5.769531 -3.632812 5.890625 -3.175781 5.890625 -2.65625 C 5.890625 -2.132812 5.769531 -1.671875 5.53125 -1.265625 C 5.289062 -0.867188 4.953125 -0.554688 4.515625 -0.328125 C 4.085938 -0.109375 3.59375 0 3.03125 0 L 0.796875 0 Z M 2.984375 -0.65625 C 3.410156 -0.65625 3.785156 -0.738281 4.109375 -0.90625 C 4.441406 -1.070312 4.695312 -1.304688 4.875 -1.609375 C 5.050781 -1.910156 5.140625 -2.257812 5.140625 -2.65625 C 5.140625 -3.050781 5.050781 -3.394531 4.875 -3.6875 C 4.695312 -3.988281 4.441406 -4.222656 4.109375 -4.390625 C 3.785156 -4.554688 3.410156 -4.640625 2.984375 -4.640625 L 1.546875 -4.640625 L 1.546875 -0.65625 Z M 2.984375 -0.65625 "/></g></g><g style="fill:#ad720f;fill-opacity:1;"><g transform="translate(163.246166, 27.295293)"><path style="stroke:none" d="M 3.1875 0.0625 C 2.65625 0.0625 2.171875 -0.0507812 1.734375 -0.28125 C 1.304688 -0.519531 0.96875 -0.847656 0.71875 -1.265625 C 0.476562 -1.679688 0.359375 -2.144531 0.359375 -2.65625 C 0.359375 -3.164062 0.476562 -3.625 0.71875 -4.03125 C 0.96875 -4.445312 1.304688 -4.769531 1.734375 -5 C 2.171875 -5.238281 2.65625 -5.359375 3.1875 -5.359375 C 3.71875 -5.359375 4.195312 -5.238281 4.625 -5 C 5.0625 -4.769531 5.398438 -4.445312 5.640625 -4.03125 C 5.878906 -3.625 6 -3.164062 6 -2.65625 C 6 -2.132812 5.878906 -1.664062 5.640625 -1.25 C 5.398438 -0.84375 5.0625 -0.519531 4.625 -0.28125 C 4.195312 -0.0507812 3.71875 0.0625 3.1875 0.0625 Z M 3.1875 -0.609375 C 3.582031 -0.609375 3.929688 -0.695312 4.234375 -0.875 C 4.546875 -1.050781 4.789062 -1.296875 4.96875 -1.609375 C 5.15625 -1.921875 5.25 -2.269531 5.25 -2.65625 C 5.25 -3.039062 5.15625 -3.382812 4.96875 -3.6875 C 4.789062 -4 4.546875 -4.242188 4.234375 -4.421875 C 3.929688 -4.597656 3.582031 -4.6875 3.1875 -4.6875 C 2.800781 -4.6875 2.445312 -4.597656 2.125 -4.421875 C 1.8125 -4.242188 1.566406 -4 1.390625 -3.6875 C 1.210938 -3.382812 1.125 -3.039062 1.125 -2.65625 C 1.125 -2.269531 1.210938 -1.921875 1.390625 -1.609375 C 1.566406 -1.296875 1.8125 -1.050781 2.125 -0.875 C 2.445312 -0.695312 2.800781 -0.609375 3.1875 -0.609375 Z M 3.1875 -0.609375 "/></g></g><g style="fill:#ad720f;fill-opacity:1;"><g transform="translate(171.641554, 27.295293)"><path style="stroke:none" d="M 5.71875 0 L 5.703125 -3.859375 L 3.796875 -0.640625 L 3.4375 -0.640625 L 1.515625 -3.84375 L 1.515625 0 L 0.796875 0 L 0.796875 -5.3125 L 1.421875 -5.3125 L 3.625 -1.578125 L 5.8125 -5.3125 L 6.4375 -5.3125 L 6.4375 0 Z M 5.71875 0 "/></g></g><g style="fill:#ad720f;fill-opacity:1;"><g transform="translate(180.908313, 27.295293)"><path style="stroke:none" d="M 0.796875 -5.3125 L 1.546875 -5.3125 L 1.546875 0 L 0.796875 0 Z M 1.640625 -6.71875 L 2.5625 -6.71875 L 1.296875 -5.734375 L 0.609375 -5.734375 Z M 1.640625 -6.71875 "/></g></g><g style="fill:#ad720f;fill-opacity:1;"><g transform="translate(185.287837, 27.295293)"><path style="stroke:none" d="M 5.359375 -5.3125 L 5.359375 0 L 4.734375 0 L 1.546875 -3.953125 L 1.546875 0 L 0.796875 0 L 0.796875 -5.3125 L 1.421875 -5.3125 L 4.59375 -1.34375 L 4.59375 -5.3125 Z M 5.359375 -5.3125 "/></g></g><g style="fill:#ad720f;fill-opacity:1;"><g transform="translate(193.47106, 27.295293)"><path style="stroke:none" d="M 0.796875 -5.3125 L 1.546875 -5.3125 L 1.546875 0 L 0.796875 0 Z M 0.796875 -5.3125 "/></g></g><g style="fill:#ad720f;fill-opacity:1;"><g transform="translate(197.850604, 27.295293)"><path style="stroke:none" d="M 3.1875 0.0625 C 2.65625 0.0625 2.171875 -0.0507812 1.734375 -0.28125 C 1.304688 -0.519531 0.96875 -0.847656 0.71875 -1.265625 C 0.476562 -1.679688 0.359375 -2.144531 0.359375 -2.65625 C 0.359375 -3.164062 0.476562 -3.625 0.71875 -4.03125 C 0.96875 -4.445312 1.304688 -4.769531 1.734375 -5 C 2.171875 -5.238281 2.65625 -5.359375 3.1875 -5.359375 C 3.71875 -5.359375 4.195312 -5.238281 4.625 -5 C 5.0625 -4.769531 5.398438 -4.445312 5.640625 -4.03125 C 5.878906 -3.625 6 -3.164062 6 -2.65625 C 6 -2.132812 5.878906 -1.664062 5.640625 -1.25 C 5.398438 -0.84375 5.0625 -0.519531 4.625 -0.28125 C 4.195312 -0.0507812 3.71875 0.0625 3.1875 0.0625 Z M 3.1875 -0.609375 C 3.582031 -0.609375 3.929688 -0.695312 4.234375 -0.875 C 4.546875 -1.050781 4.789062 -1.296875 4.96875 -1.609375 C 5.15625 -1.921875 5.25 -2.269531 5.25 -2.65625 C 5.25 -3.039062 5.15625 -3.382812 4.96875 -3.6875 C 4.789062 -4 4.546875 -4.242188 4.234375 -4.421875 C 3.929688 -4.597656 3.582031 -4.6875 3.1875 -4.6875 C 2.800781 -4.6875 2.445312 -4.597656 2.125 -4.421875 C 1.8125 -4.242188 1.566406 -4 1.390625 -3.6875 C 1.210938 -3.382812 1.125 -3.039062 1.125 -2.65625 C 1.125 -2.269531 1.210938 -1.921875 1.390625 -1.609375 C 1.566406 -1.296875 1.8125 -1.050781 2.125 -0.875 C 2.445312 -0.695312 2.800781 -0.609375 3.1875 -0.609375 Z M 3.1875 -0.609375 "/></g></g><g style="fill:#ad720f;fill-opacity:1;"><g transform="translate(206.245982, 27.295293)"><path style="stroke:none" d="M 2.34375 0.0625 C 1.945312 0.0625 1.5625 0 1.1875 -0.125 C 0.8125 -0.25 0.519531 -0.410156 0.3125 -0.609375 L 0.59375 -1.203125 C 0.789062 -1.015625 1.046875 -0.863281 1.359375 -0.75 C 1.679688 -0.632812 2.007812 -0.578125 2.34375 -0.578125 C 2.78125 -0.578125 3.109375 -0.648438 3.328125 -0.796875 C 3.546875 -0.953125 3.65625 -1.15625 3.65625 -1.40625 C 3.65625 -1.582031 3.59375 -1.726562 3.46875 -1.84375 C 3.351562 -1.957031 3.207031 -2.046875 3.03125 -2.109375 C 2.863281 -2.171875 2.617188 -2.238281 2.296875 -2.3125 C 1.898438 -2.40625 1.578125 -2.5 1.328125 -2.59375 C 1.085938 -2.695312 0.878906 -2.847656 0.703125 -3.046875 C 0.523438 -3.242188 0.4375 -3.507812 0.4375 -3.84375 C 0.4375 -4.132812 0.507812 -4.390625 0.65625 -4.609375 C 0.8125 -4.835938 1.039062 -5.019531 1.34375 -5.15625 C 1.644531 -5.289062 2.019531 -5.359375 2.46875 -5.359375 C 2.78125 -5.359375 3.085938 -5.316406 3.390625 -5.234375 C 3.691406 -5.160156 3.953125 -5.046875 4.171875 -4.890625 L 3.921875 -4.296875 C 3.703125 -4.429688 3.460938 -4.535156 3.203125 -4.609375 C 2.953125 -4.679688 2.707031 -4.71875 2.46875 -4.71875 C 2.039062 -4.71875 1.71875 -4.640625 1.5 -4.484375 C 1.289062 -4.328125 1.1875 -4.125 1.1875 -3.875 C 1.1875 -3.695312 1.242188 -3.550781 1.359375 -3.4375 C 1.484375 -3.320312 1.632812 -3.234375 1.8125 -3.171875 C 1.988281 -3.109375 2.234375 -3.039062 2.546875 -2.96875 C 2.941406 -2.875 3.257812 -2.773438 3.5 -2.671875 C 3.75 -2.578125 3.957031 -2.429688 4.125 -2.234375 C 4.300781 -2.046875 4.390625 -1.785156 4.390625 -1.453125 C 4.390625 -1.171875 4.3125 -0.914062 4.15625 -0.6875 C 4.007812 -0.457031 3.78125 -0.273438 3.46875 -0.140625 C 3.164062 -0.00390625 2.789062 0.0625 2.34375 0.0625 Z M 2.34375 0.0625 "/></g></g></g></svg>